<svg width="29" height="29" viewBox="0 0 29 29" fill="none" xmlns="http://www.w3.org/2000/svg">
<path d="M21.7494 18.7292C21.5904 18.7301 21.4327 18.6997 21.2855 18.6395C21.1383 18.5794 21.0044 18.4908 20.8915 18.3788L15.3573 12.8326C15.245 12.7193 15.1114 12.6294 14.9641 12.5681C14.8169 12.5067 14.6589 12.4751 14.4994 12.4751C14.3399 12.4751 14.182 12.5067 14.0347 12.5681C13.8875 12.6294 13.7538 12.7193 13.6415 12.8326L8.10733 18.3788C7.87979 18.6063 7.57119 18.7342 7.24941 18.7342C6.92763 18.7342 6.61903 18.6063 6.39149 18.3788C6.16396 18.1513 6.03613 17.8427 6.03613 17.5209C6.03613 17.3616 6.06752 17.2038 6.12849 17.0566C6.18946 16.9094 6.27883 16.7756 6.39149 16.663L11.9377 11.1288C12.6264 10.4672 13.5444 10.0977 14.4994 10.0977C15.4544 10.0977 16.3724 10.4672 17.0611 11.1288L22.6073 16.663C22.7206 16.7753 22.8105 16.9089 22.8718 17.0562C22.9332 17.2034 22.9648 17.3614 22.9648 17.5209C22.9648 17.6804 22.9332 17.8383 22.8718 17.9856C22.8105 18.1328 22.7206 18.2665 22.6073 18.3788C22.4944 18.4908 22.3605 18.5794 22.2133 18.6395C22.0661 18.6997 21.9084 18.7301 21.7494 18.7292Z" fill="#00A79C"/>
</svg>
