<svg width="607" height="542" viewBox="0 0 607 542" fill="none" xmlns="http://www.w3.org/2000/svg">
<g filter="url(#filter0_d_17_960)">
<path d="M201.509 186.255C202.649 184.059 205.784 183.651 207.526 185.439L268.454 249.411C273.458 250.289 241.822 275.922 253.919 304.754C256.832 308.833 282.008 335.752 291.983 283.483C294.169 272.094 291.223 260.297 284.383 250.885C281.216 246.556 278.398 242.226 270.829 235.857L231.91 194.6C231.91 194.6 216.329 168.278 238.465 146.473C238.465 146.473 264.211 120.871 320.516 125.578C320.516 125.578 368.049 127.711 401.395 180.106C402.124 181.392 402.82 182.647 403.517 183.933C408.489 194.412 429.231 243.418 406.716 288.503C405.956 290.04 403.834 290.416 402.599 289.224C391.642 278.369 347.339 234.477 340.34 227.543C339.802 227.01 339.833 226.288 340.403 225.817C344.204 222.774 357.504 211.072 359.436 195.698C362.729 169.658 323.24 164.073 316.336 189.392C315.703 191.683 315.164 194.192 314.689 196.922C314.056 200.687 314.373 206.836 315.544 210.476C317.444 216.468 323.461 223.402 331.315 230.963L375.333 277.804C375.333 277.804 402.472 308.111 374.953 330.293C374.953 330.293 356.617 350.843 305.284 351.941C305.284 351.941 246.224 355.58 212.118 305.79C212.118 305.79 170.411 245.458 201.541 186.161L201.509 186.255Z" fill="#00A79C"/>
</g>
<defs>
<filter id="filter0_d_17_960" x="0.600006" y="-64.4" width="605.8" height="605.8" filterUnits="userSpaceOnUse" color-interpolation-filters="sRGB">
<feFlood flood-opacity="0" result="BackgroundImageFix"/>
<feColorMatrix in="SourceAlpha" type="matrix" values="0 0 0 0 0 0 0 0 0 0 0 0 0 0 0 0 0 0 127 0" result="hardAlpha"/>
<feOffset/>
<feGaussianBlur stdDeviation="94.7"/>
<feComposite in2="hardAlpha" operator="out"/>
<feColorMatrix type="matrix" values="0 0 0 0 0 0 0 0 0 0.47 0 0 0 0 0.439042 0 0 0 1 0"/>
<feBlend mode="normal" in2="BackgroundImageFix" result="effect1_dropShadow_17_960"/>
<feBlend mode="normal" in="SourceGraphic" in2="effect1_dropShadow_17_960" result="shape"/>
</filter>
</defs>
</svg>
